<?xml version="1.0" encoding="UTF-8" standalone="no"?><!-- Generator: Gravit.io --><svg xmlns="http://www.w3.org/2000/svg" xmlns:xlink="http://www.w3.org/1999/xlink" style="isolation:isolate" viewBox="0 0 400 280" width="400pt" height="280pt"><defs><clipPath id="_clipPath_MUoIt5EB4Fq9GAK3aY5bv6ZnrJ4Xyzpv"><rect width="400" height="280"/></clipPath></defs><g clip-path="url(#_clipPath_MUoIt5EB4Fq9GAK3aY5bv6ZnrJ4Xyzpv)"><path d=" M 331.007 92.233 C 371.307 135.833 411.207 186.633 395.407 212.133 C 379.607 237.633 307.907 237.833 258.307 248.033 C 208.707 258.233 181.107 278.333 136.907 278.033 C 92.807 277.833 32.207 257.133 10.507 213.033 C -11.193 168.933 6.107 101.433 45.707 58.033 C 85.307 14.633 147.407 -4.567 198.707 3.933 C 250.107 12.433 290.707 48.733 331.007 92.233 Z  M 116.789 206.974 L 116.789 206.974 L 116.789 206.974 Q 116.789 206.974 87.315 221.253 L 87.315 221.253 L 79.46 225.059 L 75.955 226.757 L 75.955 226.757 Q 74.332 227.543 73.036 226.688 L 73.036 226.688 L 73.036 226.688 Q 71.74 225.833 71.311 223.957 L 71.311 223.957 L 53.8 138.176 L 48.995 140.503 L 48.995 140.503 Q 46.983 141.478 45.864 140.658 L 45.864 140.658 L 45.864 140.658 Q 44.745 139.837 44.136 136.926 L 44.136 136.926 L 42.221 127.513 L 42.221 127.513 Q 41.761 125.572 41.996 124.897 L 41.996 124.897 L 41.996 124.897 Q 42.23 124.223 43.593 123.562 L 43.593 123.562 L 53.396 118.813 L 64.692 113.34 L 92.867 99.69 L 92.867 99.69 Q 96.892 97.74 97.994 102.496 L 97.994 102.496 L 100.112 111.169 L 100.112 111.169 Q 100.576 112.788 99.715 114.568 L 99.715 114.568 L 99.715 114.568 Q 98.854 116.348 97.36 117.071 L 97.36 117.071 L 72.042 129.338 L 76.693 152.174 L 99.35 141.197 L 99.35 141.197 Q 103.115 139.373 104.217 144.129 L 104.217 144.129 L 106.335 152.802 L 106.335 152.802 Q 106.799 154.421 106.035 156.154 L 106.035 156.154 L 106.035 156.154 Q 105.271 157.886 103.843 158.578 L 103.843 158.578 L 80.342 169.964 L 86.912 201.89 L 112.296 189.592 L 112.296 189.592 Q 116.061 187.768 117.163 192.524 L 117.163 192.524 L 119.281 201.197 L 119.281 201.197 Q 119.744 202.816 118.981 204.549 L 118.981 204.549 L 118.981 204.549 Q 118.217 206.282 116.789 206.974 L 116.789 206.974 Z  M 157.701 164.604 L 157.701 164.604 L 157.701 164.604 Q 162.788 136.785 162.381 111.976 L 162.381 111.976 L 162.381 111.976 Q 162.328 108.792 165.757 108.231 L 165.757 108.231 L 177.234 106.252 L 177.234 106.252 Q 178.966 106.042 180.165 106.821 L 180.165 106.821 L 180.165 106.821 Q 181.363 107.599 181.206 109.051 L 181.206 109.051 L 181.206 109.051 Q 177.243 157.113 168.726 181.626 L 168.726 181.626 L 168.726 181.626 Q 167.03 186.437 165.438 188.992 L 165.438 188.992 L 165.438 188.992 Q 163.846 191.547 161.747 192.072 L 161.747 192.072 L 151.495 193.893 L 151.495 193.893 Q 149.308 194.069 147.418 192.608 L 147.418 192.608 L 147.418 192.608 Q 145.528 191.147 145.003 187.858 L 145.003 187.858 L 145.003 187.858 Q 142.831 173.232 138.48 156.288 L 138.48 156.288 L 138.48 156.288 Q 134.13 139.344 128.809 123.721 L 128.809 123.721 L 128.809 123.721 Q 126.778 118.578 130.907 117.545 L 130.907 117.545 L 141.964 114.779 L 141.964 114.779 Q 143.643 114.359 144.606 114.936 L 144.606 114.936 L 144.606 114.936 Q 145.568 115.513 146.216 117.21 L 146.216 117.21 L 146.216 117.21 Q 153.708 138.536 157.701 164.604 L 157.701 164.604 Z  M 205.786 82.69 L 205.786 82.69 L 205.786 82.69 Q 205.229 78.398 207.916 74.995 L 207.916 74.995 L 207.916 74.995 Q 210.603 71.591 215.253 70.989 L 215.253 70.989 L 217.328 70.72 L 217.328 70.72 Q 220.905 70.257 224.429 73.037 L 224.429 73.037 L 224.429 73.037 Q 227.954 75.818 228.463 79.752 L 228.463 79.752 L 228.463 79.752 Q 229.02 84.045 226.211 87.354 L 226.211 87.354 L 226.211 87.354 Q 223.403 90.664 218.682 91.276 L 218.682 91.276 L 216.75 91.526 L 216.75 91.526 Q 212.887 92.026 209.596 89.361 L 209.596 89.361 L 209.596 89.361 Q 206.305 86.696 205.786 82.69 L 205.786 82.69 Z  M 224.571 103.606 L 224.571 103.606 L 224.571 103.606 Q 224.571 103.606 214.938 178.612 L 214.938 178.612 L 214.938 178.612 Q 214.497 181.943 210.92 182.406 L 210.92 182.406 L 199.044 183.944 L 199.044 183.944 Q 195.038 184.463 195.39 180.999 L 195.39 180.999 L 205.093 105.984 L 205.093 105.984 Q 205.535 102.653 209.04 102.199 L 209.04 102.199 L 220.916 100.661 L 220.916 100.661 Q 224.922 100.142 224.571 103.606 L 224.571 103.606 Z  M 253.403 139.917 L 253.403 139.917 L 253.403 139.917 Q 258.293 136.332 261.526 129.099 L 261.526 129.099 L 261.526 129.099 Q 264.759 121.866 264.363 116.037 L 264.363 116.037 L 264.363 116.037 Q 264.207 113.734 263.755 112.933 L 263.755 112.933 L 263.755 112.933 Q 263.303 112.132 262.223 112.205 L 262.223 112.205 L 262.223 112.205 Q 261.144 112.278 259.897 114.677 L 259.897 114.677 L 259.897 114.677 Q 258.65 117.075 257.942 119.437 L 257.942 119.437 L 257.942 119.437 Q 255.571 127.117 253.403 139.917 L 253.403 139.917 Z  M 251.037 156.201 L 251.037 156.201 L 251.037 156.201 Q 250.619 159.628 251.009 160.578 L 251.009 160.578 L 251.009 160.578 Q 251.399 161.527 253.165 161.986 L 253.165 161.986 L 253.165 161.986 Q 255.578 161.316 262.454 152.896 L 262.454 152.896 L 262.454 152.896 Q 262.99 152.281 263.849 152.151 L 263.849 152.151 L 263.849 152.151 Q 264.708 152.02 265.385 152.408 L 265.385 152.408 L 272.88 156.31 L 272.88 156.31 Q 273.778 156.755 274.247 157.808 L 274.247 157.808 L 274.247 157.808 Q 274.716 158.861 274.4 159.533 L 274.4 159.533 L 274.4 159.533 Q 272.151 164.747 263.312 173.01 L 263.312 173.01 L 263.312 173.01 Q 254.474 181.274 250.826 180.799 L 250.826 180.799 L 250.826 180.799 Q 236.51 178.661 233.956 169.796 L 233.956 169.796 L 233.956 169.796 Q 232.231 163.551 233.583 150.444 L 233.583 150.444 L 233.583 150.444 Q 234.935 137.338 238.795 124.423 L 238.795 124.423 L 238.795 124.423 Q 242.654 111.508 247.308 106.565 L 247.308 106.565 L 247.308 106.565 Q 250.404 103.174 253.904 100.948 L 253.904 100.948 L 253.904 100.948 Q 257.404 98.722 261.29 97.916 L 261.29 97.916 L 261.29 97.916 Q 265.176 97.11 268.81 98.455 L 268.81 98.455 L 268.81 98.455 Q 279.4 102.147 280.132 112.942 L 280.132 112.942 L 280.132 112.942 Q 280.63 120.283 276.603 129.125 L 276.603 129.125 L 276.603 129.125 Q 272.575 137.966 265.629 145.342 L 265.629 145.342 L 265.629 145.342 Q 258.682 152.718 251.037 156.201 L 251.037 156.201 Z " fill-rule="evenodd" fill="rgb(255,255,255)"/></g></svg>